<?xml version="1.0" standalone="no"?>
<!DOCTYPE svg PUBLIC "-//W3C//DTD SVG 20010904//EN"
 "http://www.w3.org/TR/2001/REC-SVG-20010904/DTD/svg10.dtd">
<svg version="1.0" xmlns="http://www.w3.org/2000/svg"
 width="612.000000pt" height="408.000000pt" viewBox="0 0 612.000000 408.000000"
 preserveAspectRatio="xMidYMid meet">

<g transform="translate(0.000000,408.000000) scale(0.100000,-0.100000)"
fill="#000000" stroke="none">
<path d="M1398 2744 c-12 -4 -18 -15 -18 -35 0 -28 1 -29 53 -29 161 0 344
-116 416 -262 65 -131 61 -266 -14 -450 -18 -46 -25 -4 -25 155 0 165 -1 175
-25 224 -37 74 -89 106 -176 111 -55 3 -76 0 -109 -17 l-40 -21 -37 22 c-25
16 -53 22 -90 22 l-53 0 0 128 c0 108 -2 128 -15 128 -38 0 -162 -76 -220
-134 -272 -272 -162 -757 202 -888 62 -22 267 -38 283 -22 5 5 11 25 15 45 l7
36 -59 -10 c-73 -12 -186 4 -260 38 -63 28 -150 108 -194 176 -92 144 -92 354
0 498 17 26 40 56 51 66 20 18 20 17 20 -288 l0 -307 85 0 85 0 2 182 3 183
27 9 c22 8 32 6 48 -9 19 -17 20 -30 20 -202 l0 -183 80 0 80 0 0 183 c0 200
2 207 56 207 56 0 56 -3 53 -310 -2 -154 -1 -280 2 -280 4 0 34 18 67 40 118
79 206 202 237 331 65 275 -95 567 -352 642 -57 17 -177 29 -205 21z"/>
<path d="M2398 2543 l-3 -38 -55 -6 -55 -6 53 -1 c50 -2 52 -3 52 -30 0 -15
-5 -33 -12 -40 -9 -9 -9 -12 1 -12 13 0 11 -131 -5 -307 l-6 -63 46 0 46 0 0
63 c0 35 3 119 7 185 5 98 9 122 21 122 12 0 14 -20 7 -140 -7 -149 -3 -170
37 -170 10 0 17 4 14 8 -3 5 -1 71 3 148 4 76 6 145 3 152 -2 7 -16 15 -31 18
-46 10 -49 12 -44 38 5 22 11 25 52 29 l46 3 -47 2 -48 2 0 40 c0 40 0 40 -39
40 -39 0 -40 -1 -43 -37z"/>
<path d="M2688 2543 l-3 -38 -52 -3 c-29 -2 -53 -7 -53 -13 0 -5 68 -9 165 -9
103 0 165 4 165 10 0 6 -27 10 -60 10 l-60 0 0 40 0 40 -49 0 -50 0 -3 -37z"/>
<path d="M3780 2528 c0 -62 -6 -74 -40 -81 -24 -4 -24 -4 4 -6 l28 -1 -7 -167
c-3 -93 -9 -176 -11 -185 -3 -11 -15 -18 -30 -18 -13 0 -24 -4 -24 -10 0 -12
-4 -12 87 0 40 5 86 16 102 24 27 14 29 14 34 -4 8 -31 49 -40 188 -40 139 0
188 12 208 48 17 33 13 50 -7 26 -9 -12 -27 -27 -39 -33 -25 -13 -222 -15
-242 -2 -14 9 -16 152 -3 281 6 59 9 65 31 68 l24 4 -7 -156 -8 -156 46 0 c25
0 46 3 46 8 0 4 5 79 10 166 9 162 18 192 49 162 10 -11 12 -38 6 -131 -7
-103 -10 -118 -26 -122 -26 -7 -24 -18 6 -31 36 -16 71 -15 89 3 18 19 23 49
30 183 5 93 3 105 -14 122 -22 22 -37 24 -92 11 l-38 -9 0 49 0 49 -45 0 -45
0 0 -60 c0 -54 -3 -62 -22 -69 -33 -12 -40 -4 -36 40 l4 39 -48 0 -48 0 0 -54
c0 -44 -4 -56 -22 -69 -21 -15 -21 -16 -4 -16 18 -1 19 -8 12 -138 -4 -76 -10
-141 -14 -145 -4 -3 -20 -10 -35 -14 l-29 -7 6 79 c3 44 8 123 12 176 6 95 6
97 32 101 l27 4 -29 2 -29 1 5 65 6 65 -49 0 -49 0 0 -52z"/>
<path d="M4499 2543 c-6 -21 -20 -55 -31 -75 l-18 -38 41 0 c33 0 47 6 69 30
22 24 36 30 69 30 23 0 41 5 41 10 0 6 -18 10 -41 10 -29 0 -40 4 -36 13 21
58 22 57 -32 57 -48 0 -50 -1 -62 -37z"/>
<path d="M3120 2526 c0 -24 -5 -124 -11 -222 -10 -178 -18 -211 -58 -258 -15
-18 -15 -19 26 -12 61 9 92 26 109 57 14 27 34 273 34 417 l0 62 -50 0 -50 0
0 -44z"/>
<path d="M3516 2548 c-3 -13 -7 -88 -11 -168 -3 -80 -8 -189 -12 -242 l-6 -98
50 0 50 0 7 138 c3 75 9 194 13 265 l6 127 -46 0 c-40 0 -47 -3 -51 -22z"/>
<path d="M4838 2518 c-3 -47 -6 -53 -26 -56 -20 -3 -23 0 -18 17 19 66 21 61
-27 61 l-45 0 -12 -52 c-7 -29 -21 -71 -31 -92 -11 -22 -19 -41 -19 -43 0 -2
15 -3 33 -3 43 0 68 19 82 61 8 23 18 34 31 34 17 0 19 -9 22 -67 l3 -68 -81
0 c-47 0 -79 -4 -76 -9 4 -5 35 -9 71 -8 36 1 65 -2 65 -6 0 -19 -93 -190
-121 -221 l-31 -36 31 0 c62 0 96 24 136 94 20 36 40 66 44 66 4 0 18 -25 31
-57 32 -77 50 -93 107 -93 44 0 45 1 30 18 -18 20 -93 187 -99 218 -3 17 3 19
58 16 37 -2 64 1 68 7 5 8 -17 11 -69 11 l-77 0 7 63 c4 34 9 64 10 67 2 3 26
5 54 4 28 -1 53 2 57 7 3 5 -22 9 -56 9 l-62 0 4 55 3 55 -47 0 -47 0 -3 -52z"/>
<path d="M3320 2558 c-4 -26 -27 -494 -25 -497 2 -2 24 -4 48 -5 l45 -2 6 66
c3 36 8 135 11 220 3 85 8 170 11 188 l5 32 -51 0 c-27 0 -50 -1 -50 -2z"/>
<path d="M3026 2414 c-3 -26 -6 -77 -6 -113 0 -38 -6 -78 -14 -93 -14 -27 -14
-28 9 -28 49 0 55 19 70 208 l5 72 -29 0 c-26 0 -29 -3 -35 -46z"/>
<path d="M3246 2414 c-16 -119 -5 -224 25 -224 3 0 7 51 8 113 1 61 3 121 4
132 1 11 -5 21 -14 23 -12 2 -18 -8 -23 -44z"/>
<path d="M3435 2388 c-10 -114 -4 -178 20 -194 20 -13 20 -11 21 127 1 126 -1
139 -17 139 -14 0 -18 -12 -24 -72z"/>
<path d="M2296 2288 c-4 -79 -10 -153 -13 -165 -4 -18 -1 -23 15 -23 38 0 52
37 52 135 1 49 4 108 9 130 10 53 5 65 -29 65 l-27 0 -7 -142z"/>
<path d="M2606 2367 c-3 -23 -8 -96 -11 -161 -4 -82 -10 -127 -20 -143 -15
-23 -15 -23 23 -23 21 0 47 6 57 14 22 16 33 84 34 206 1 47 4 95 7 107 7 27
32 37 51 21 12 -10 13 -37 7 -165 -8 -175 -5 -183 60 -183 56 0 86 22 85 63 0
30 -1 31 -11 10 -11 -22 -33 -30 -41 -15 -3 4 -1 66 3 137 10 182 16 174 -124
174 l-115 -1 -5 -41z"/>
<path d="M4450 2400 c0 -5 11 -10 25 -10 24 0 25 -2 19 -42 -8 -63 -10 -66
-41 -71 -26 -4 -25 -4 6 -6 l34 -1 -7 -94 c-7 -88 -6 -96 13 -115 33 -33 95
-29 132 8 32 32 42 66 11 38 -21 -19 -48 -22 -57 -8 -3 6 -3 46 1 90 l7 81 36
1 36 2 -35 6 c-39 7 -46 22 -35 77 5 28 10 34 30 34 14 0 25 5 25 10 0 6 -40
10 -100 10 -60 0 -100 -4 -100 -10z"/>
<path d="M2308 1900 c-4 -14 -7 -52 -7 -85 2 -60 2 -60 12 -22 10 36 12 37 55
37 l44 0 -4 -35 c-5 -43 7 -46 16 -4 10 50 7 131 -4 124 -5 -3 -10 -19 -10
-36 0 -28 -2 -29 -44 -29 -44 0 -45 0 -48 38 -3 33 -4 35 -10 12z"/>
<path d="M2541 1844 c-18 -42 -30 -79 -27 -81 3 -3 11 6 17 21 10 20 19 26 45
26 27 0 35 -5 40 -25 3 -14 10 -25 15 -25 16 0 -30 151 -48 157 -5 2 -24 -31
-42 -73z m49 34 c0 -7 3 -23 6 -35 5 -20 2 -23 -20 -23 -30 0 -29 -2 -15 39
11 31 29 42 29 19z"/>
<path d="M2730 1863 c0 -32 -3 -68 -6 -80 -4 -14 -2 -23 5 -23 7 0 11 22 11
60 0 33 4 60 9 60 5 0 24 -27 43 -60 39 -72 58 -77 58 -17 0 23 3 59 6 80 5
24 3 37 -5 37 -6 0 -11 -18 -11 -42 0 -24 -3 -53 -6 -66 -6 -20 -11 -15 -43
39 -48 84 -61 86 -61 12z"/>
<path d="M2971 1903 c-30 -25 -38 -85 -17 -118 15 -23 23 -26 71 -23 l53 3 4
37 c3 38 3 38 -32 37 -31 -1 -32 -2 -10 -8 25 -8 28 -24 8 -48 -13 -16 -60
-17 -76 -1 -20 20 -15 85 8 108 26 26 48 25 77 -2 19 -18 23 -19 23 -5 0 36
-73 49 -109 20z"/>
<path d="M3180 1910 c0 -5 21 -10 46 -10 l46 0 -49 -57 c-74 -86 -74 -83 4
-81 63 2 64 2 16 5 -29 2 -53 6 -53 9 0 3 23 31 50 63 28 32 50 63 50 69 0 8
-20 12 -55 12 -30 0 -55 -4 -55 -10z"/>
<path d="M3378 1891 c-5 -18 -7 -57 -7 -85 l2 -51 10 38 c10 36 12 37 55 37
l44 0 -4 -35 c-5 -43 7 -46 16 -4 10 50 7 131 -4 124 -5 -3 -10 -19 -10 -36 0
-28 -2 -29 -44 -29 -44 0 -45 0 -48 38 l-3 37 -7 -34z"/>
<path d="M3618 1910 c-26 -16 -41 -72 -28 -106 14 -35 26 -44 66 -44 42 0 73
27 80 70 11 67 -59 114 -118 80z m82 -20 c58 -58 -21 -158 -82 -103 -26 23
-23 69 7 98 29 30 49 31 75 5z"/>
<path d="M3828 1862 c-10 -82 0 -102 52 -102 53 0 70 26 69 105 0 67 -17 51
-18 -18 -1 -51 -17 -77 -45 -77 -35 0 -45 19 -48 90 l-3 65 -7 -63z"/>
<path d="M4096 1898 c-10 -37 -7 -138 4 -138 6 0 10 29 10 68 1 74 10 69 30
-15 7 -33 17 -53 26 -53 8 0 14 6 15 13 0 6 11 35 24 62 l24 50 -2 -63 c-1
-34 1 -62 4 -62 7 0 19 86 19 133 0 42 -25 33 -43 -15 -9 -24 -21 -56 -28 -73
l-12 -30 -21 69 c-22 73 -39 92 -50 54z"/>
<path d="M4345 1908 c-2 -7 -5 -43 -7 -81 l-3 -67 60 2 60 1 -50 6 c-31 4 -50
11 -49 19 1 6 2 19 3 27 1 11 13 15 41 15 22 0 40 5 40 10 0 6 -18 10 -40 10
-36 0 -40 3 -40 25 0 23 3 25 50 25 28 0 50 5 50 10 0 15 -110 13 -115 -2z"/>
<path d="M4540 1910 c0 -5 12 -10 26 -10 l26 0 -7 -70 c-5 -49 -4 -70 4 -70 7
0 11 21 11 54 0 70 7 86 36 86 13 0 24 5 24 10 0 6 -27 10 -60 10 -33 0 -60
-4 -60 -10z"/>
<path d="M4745 1908 c-7 -23 -10 -148 -3 -148 4 0 8 15 10 33 3 30 5 32 43 32
38 0 40 -2 43 -32 2 -18 8 -33 14 -33 7 0 9 16 5 45 -4 25 -2 47 3 50 15 9 12
32 -6 49 -19 19 -103 22 -109 4z m101 -23 c10 -24 -15 -45 -52 -45 -31 0 -34
3 -34 30 0 28 2 30 40 30 27 0 43 -5 46 -15z"/>
<path d="M4975 1895 c-18 -17 -25 -35 -25 -63 0 -48 24 -72 73 -72 44 0 77 37
77 86 0 69 -76 99 -125 49z m91 -11 c28 -27 27 -63 -3 -96 -18 -21 -63 -24
-81 -6 -20 20 -15 85 8 108 27 27 46 25 76 -6z"/>
<path d="M837 1420 l-56 -90 1097 0 1097 0 50 82 c28 46 52 86 53 90 2 5 -489
8 -1091 8 l-1095 0 -55 -90z"/>
<path d="M3136 1478 c-8 -12 -12 -26 -9 -31 3 -6 1 -7 -4 -4 -12 8 -26 -20
-17 -34 3 -5 0 -8 -8 -7 -23 5 -22 -49 1 -61 14 -8 335 -10 1078 -9 998 3
1058 4 1057 20 -1 10 2 16 6 13 12 -7 62 83 54 97 -4 6 -3 8 2 5 6 -3 15 3 22
14 12 19 -2 19 -1077 19 l-1090 0 -15 -22z"/>
</g>
</svg>
