<?xml version="1.0" encoding="UTF-8"?>
<!DOCTYPE svg PUBLIC "-//W3C//DTD SVG 1.1//EN" "http://www.w3.org/Graphics/SVG/1.1/DTD/svg11.dtd">
<svg xmlns="http://www.w3.org/2000/svg" version="1.1" width="500px" height="500px" style="shape-rendering:geometricPrecision; text-rendering:geometricPrecision; image-rendering:optimizeQuality; fill-rule:evenodd; clip-rule:evenodd" xmlns:xlink="http://www.w3.org/1999/xlink">
<g><path style="opacity:1" fill="#293348" d="M -0.5,-0.5 C 166.167,-0.5 332.833,-0.5 499.5,-0.5C 499.5,166.167 499.5,332.833 499.5,499.5C 332.833,499.5 166.167,499.5 -0.5,499.5C -0.5,332.833 -0.5,166.167 -0.5,-0.5 Z"/></g>
<g><path style="opacity:1" fill="#ec230e" d="M 296.5,160.5 C 292.03,161.486 287.363,161.819 282.5,161.5C 264.634,147.468 244.967,144.635 223.5,153C 218.219,156.28 213.219,159.947 208.5,164C 203.798,164.828 199.131,164.662 194.5,163.5C 206.384,148.086 222.051,139.42 241.5,137.5C 241.5,133.833 241.5,130.167 241.5,126.5C 210.998,129.504 189.165,144.837 176,172.5C 173.447,178.989 171.614,185.655 170.5,192.5C 165.515,191.752 160.515,191.085 155.5,190.5C 163.004,148.16 187.338,120.66 228.5,108C 232.114,107.064 235.78,106.564 239.5,106.5C 239.5,104.5 239.5,102.5 239.5,100.5C 244.5,100.5 249.5,100.5 254.5,100.5C 254.286,102.144 254.62,103.644 255.5,105C 274.571,105.968 291.904,111.801 307.5,122.5C 302.5,128.5 297.5,134.5 292.5,140.5C 280.5,132.056 267.167,127.389 252.5,126.5C 252.5,130.167 252.5,133.833 252.5,137.5C 270.287,139.392 284.954,147.059 296.5,160.5 Z"/></g>
<g><path style="opacity:1" fill="#ec220e" d="M 314.5,130.5 C 315.873,130.343 317.207,130.51 318.5,131C 327.475,139.304 334.475,148.97 339.5,160C 339.355,160.772 339.022,161.439 338.5,162C 334.167,163.833 329.833,165.667 325.5,167.5C 323.935,171.367 324.935,174.367 328.5,176.5C 332.652,174.712 336.986,173.712 341.5,173.5C 346.635,191.764 346.802,210.097 342,228.5C 341.804,230.286 340.971,231.619 339.5,232.5C 335.704,231.068 331.871,229.735 328,228.5C 324.239,231.622 323.739,235.122 326.5,239C 330.581,240.471 334.581,242.138 338.5,244C 339.517,245.049 339.684,246.216 339,247.5C 335.582,253.337 331.916,259.004 328,264.5C 324.977,269.023 321.144,272.69 316.5,275.5C 310.285,270.574 304.618,265.074 299.5,259C 321.05,237.29 328.217,211.456 321,181.5C 316.601,168.194 309.767,156.36 300.5,146C 304.991,140.676 309.658,135.509 314.5,130.5 Z"/></g>
<g><path style="opacity:1" fill="#735c67" d="M 296.5,160.5 C 297.043,160.56 297.376,160.893 297.5,161.5C 292.348,162.814 287.348,162.814 282.5,161.5C 287.363,161.819 292.03,161.486 296.5,160.5 Z"/></g>
<g><path style="opacity:1" fill="#ec220e" d="M 236.5,164.5 C 250.682,162.883 264.015,165.383 276.5,172C 278.041,173.579 279.208,175.413 280,177.5C 283.373,200.375 284.373,223.375 283,246.5C 281.509,251.293 278.343,254.46 273.5,256C 255.5,256.667 237.5,256.667 219.5,256C 215.333,254.5 212.5,251.667 211,247.5C 210.333,231.167 210.333,214.833 211,198.5C 211.565,191.108 212.565,183.775 214,176.5C 214.785,174.714 215.951,173.214 217.5,172C 223.722,168.877 230.056,166.377 236.5,164.5 Z"/></g>
<g><path style="opacity:1" fill="#2d3449" d="M 237.5,170.5 C 250.24,168.779 262.073,171.113 273,177.5C 275.13,195.241 274.464,212.908 271,230.5C 269.786,232.049 268.286,233.215 266.5,234C 253.5,234.667 240.5,234.667 227.5,234C 225,232.833 223.167,231 222,228.5C 220.803,217.503 219.637,206.503 218.5,195.5C 218.89,190.489 219.39,185.489 220,180.5C 220.972,178.695 222.139,177.028 223.5,175.5C 228.14,173.4 232.807,171.734 237.5,170.5 Z"/></g>
<g><path style="opacity:1" fill="#ed220e" d="M 267.5,276.5 C 268.558,272.629 267.891,268.963 265.5,265.5C 265.5,264.5 265.5,263.5 265.5,262.5C 268.187,262.336 270.854,262.503 273.5,263C 275.126,266.423 277.126,269.59 279.5,272.5C 283.464,270.851 287.131,268.684 290.5,266C 291.5,265.333 292.5,265.333 293.5,266C 298.544,271.376 303.211,277.042 307.5,283C 273.364,304.791 238.364,306.124 202.5,287C 175.237,270.444 159.904,246.444 156.5,215C 161.481,214.252 166.481,213.752 171.5,213.5C 175.457,240.782 189.79,260.449 214.5,272.5C 216.42,269.661 218.087,266.661 219.5,263.5C 222.428,262.516 225.428,262.183 228.5,262.5C 227.289,267.464 226.289,272.464 225.5,277.5C 236.422,279.373 247.422,279.873 258.5,279C 261.678,278.34 264.678,277.507 267.5,276.5 Z"/></g>
<g><path style="opacity:1" fill="#8f555d" d="M 265.5,265.5 C 267.891,268.963 268.558,272.629 267.5,276.5C 266.833,272.833 266.167,269.167 265.5,265.5 Z"/></g>
<g><path style="opacity:1" fill="#585e70" d="M 236.5,330.5 C 236.5,346.833 236.5,363.167 236.5,379.5C 238.833,379.5 241.167,379.5 243.5,379.5C 243.5,363.167 243.5,346.833 243.5,330.5C 244.499,346.422 244.832,363.089 244.5,380.5C 241.5,380.5 238.5,380.5 235.5,380.5C 235.168,363.089 235.501,346.422 236.5,330.5 Z"/></g>
<g><path style="opacity:1" fill="#0f1738" d="M 236.5,330.5 C 238.833,330.5 241.167,330.5 243.5,330.5C 243.5,346.833 243.5,363.167 243.5,379.5C 241.167,379.5 238.833,379.5 236.5,379.5C 236.5,363.167 236.5,346.833 236.5,330.5 Z"/></g>
<g><path style="opacity:1" fill="#12193a" d="M 326.5,330.5 C 329.518,330.335 332.518,330.502 335.5,331C 334.663,332.011 334.33,333.178 334.5,334.5C 337.85,334.335 341.183,334.502 344.5,335C 343.62,336.356 343.286,337.856 343.5,339.5C 337.167,339.5 330.833,339.5 324.5,339.5C 325.167,336.5 325.833,333.5 326.5,330.5 Z"/></g>
<g><path style="opacity:1" fill="#11183a" d="M 122.5,330.5 C 125.247,330.187 127.914,330.52 130.5,331.5C 128.625,334.751 126.625,337.918 124.5,341C 121.773,341.818 119.106,341.652 116.5,340.5C 118.511,337.139 120.511,333.806 122.5,330.5 Z"/></g>
<g><path style="opacity:1" fill="#10183a" d="M 227.5,340.5 C 228.833,340.5 230.167,340.5 231.5,340.5C 231.5,349.167 231.5,357.833 231.5,366.5C 230.167,366.5 228.833,366.5 227.5,366.5C 227.5,357.833 227.5,349.167 227.5,340.5 Z"/></g>
<g><path style="opacity:1" fill="#525868" d="M 215.5,330.5 C 215.5,346.833 215.5,363.167 215.5,379.5C 217.833,379.5 220.167,379.5 222.5,379.5C 222.5,363.167 222.5,346.833 222.5,330.5C 223.499,346.422 223.832,363.089 223.5,380.5C 220.5,380.5 217.5,380.5 214.5,380.5C 214.168,363.089 214.501,346.422 215.5,330.5 Z"/></g>
<g><path style="opacity:1" fill="#101739" d="M 215.5,330.5 C 217.833,330.5 220.167,330.5 222.5,330.5C 222.5,346.833 222.5,363.167 222.5,379.5C 220.167,379.5 217.833,379.5 215.5,379.5C 215.5,363.167 215.5,346.833 215.5,330.5 Z"/></g>
<g><path style="opacity:1" fill="#101737" d="M 185.5,340.5 C 186.833,340.5 188.167,340.5 189.5,340.5C 189.5,349.167 189.5,357.833 189.5,366.5C 188.167,366.5 186.833,366.5 185.5,366.5C 185.5,357.833 185.5,349.167 185.5,340.5 Z"/></g>
<g><path style="opacity:1" fill="#11183a" d="M 206.5,340.5 C 207.833,340.5 209.167,340.5 210.5,340.5C 210.5,349.167 210.5,357.833 210.5,366.5C 209.167,366.5 207.833,366.5 206.5,366.5C 206.5,357.833 206.5,349.167 206.5,340.5 Z"/></g>
<g><path style="opacity:1" fill="#52586b" d="M 337.5,357.5 C 337.5,354.5 337.5,351.5 337.5,348.5C 339.833,348.5 342.167,348.5 344.5,348.5C 344.5,346.833 344.5,345.167 344.5,343.5C 337.5,343.5 330.5,343.5 323.5,343.5C 323.5,345.167 323.5,346.833 323.5,348.5C 325.5,348.5 327.5,348.5 329.5,348.5C 329.665,351.518 329.498,354.518 329,357.5C 327.301,358.406 325.467,358.739 323.5,358.5C 323.5,359.833 323.5,361.167 323.5,362.5C 322.487,361.341 322.153,359.341 322.5,356.5C 324.5,356.5 326.5,356.5 328.5,356.5C 328.5,354.167 328.5,351.833 328.5,349.5C 326.5,349.5 324.5,349.5 322.5,349.5C 322.5,347.167 322.5,344.833 322.5,342.5C 330.167,342.5 337.833,342.5 345.5,342.5C 345.5,344.833 345.5,347.167 345.5,349.5C 343.167,349.5 340.833,349.5 338.5,349.5C 338.806,352.385 338.473,355.052 337.5,357.5 Z"/></g>
<g><path style="opacity:1" fill="#535a6b" d="M 376.5,362.5 C 375.163,361.685 374.163,360.518 373.5,359C 377.152,358.501 380.818,358.335 384.5,358.5C 384.5,356.833 384.5,355.167 384.5,353.5C 380.167,353.5 375.833,353.5 371.5,353.5C 371.5,349.833 371.5,346.167 371.5,342.5C 375.5,342.5 379.5,342.5 383.5,342.5C 383.5,340.833 383.5,339.167 383.5,337.5C 379.5,337.5 375.5,337.5 371.5,337.5C 371.5,335.167 371.5,332.833 371.5,330.5C 372.513,331.659 372.847,333.659 372.5,336.5C 376.5,336.5 380.5,336.5 384.5,336.5C 384.5,338.833 384.5,341.167 384.5,343.5C 380.5,343.5 376.5,343.5 372.5,343.5C 372.5,346.5 372.5,349.5 372.5,352.5C 376.833,352.5 381.167,352.5 385.5,352.5C 385.5,354.833 385.5,357.167 385.5,359.5C 382.15,359.335 378.817,359.502 375.5,360C 376.252,360.671 376.586,361.504 376.5,362.5 Z"/></g>
<g><path style="opacity:1" fill="#131a3a" d="M 172.5,343.5 C 171.549,344.919 171.216,346.585 171.5,348.5C 167.5,348.5 163.5,348.5 159.5,348.5C 159.5,350.5 159.5,352.5 159.5,354.5C 164.5,354.5 169.5,354.5 174.5,354.5C 174.5,356.167 174.5,357.833 174.5,359.5C 169.5,359.5 164.5,359.5 159.5,359.5C 159.5,366.167 159.5,372.833 159.5,379.5C 155.5,379.5 151.5,379.5 147.5,379.5C 147.5,377.833 147.5,376.167 147.5,374.5C 148.5,374.5 149.5,374.5 150.5,374.5C 150.5,369.5 150.5,364.5 150.5,359.5C 145.5,359.5 140.5,359.5 135.5,359.5C 135.5,357.833 135.5,356.167 135.5,354.5C 140.833,354.5 146.167,354.5 151.5,354.5C 151.5,352.5 151.5,350.5 151.5,348.5C 146.833,348.5 142.167,348.5 137.5,348.5C 137.5,346.5 137.5,344.5 137.5,342.5C 136.448,342.649 135.448,342.483 134.5,342C 136.7,338.629 138.7,335.129 140.5,331.5C 149.816,330.335 159.149,330.168 168.5,331C 170.833,334.667 173.167,338.333 175.5,342C 174.263,342.232 173.263,342.732 172.5,343.5 Z"/></g>
<g><path style="opacity:1" fill="#333c50" d="M 146.5,335.5 C 152.206,335.171 157.872,335.505 163.5,336.5C 165.02,338.662 166.02,340.995 166.5,343.5C 158.804,343.831 151.138,343.497 143.5,342.5C 144.788,340.261 145.788,337.928 146.5,335.5 Z"/></g>
<g><path style="opacity:1" fill="#4c5465" d="M 274.5,346.5 C 274.232,348.099 274.566,349.432 275.5,350.5C 275.44,351.043 275.107,351.376 274.5,351.5C 273.548,349.955 273.215,348.288 273.5,346.5C 272.167,346.5 270.833,346.5 269.5,346.5C 269.5,355.5 269.5,364.5 269.5,373.5C 271.167,373.5 272.833,373.5 274.5,373.5C 274.5,375.833 274.5,378.167 274.5,380.5C 267.5,380.5 260.5,380.5 253.5,380.5C 253.5,378.167 253.5,375.833 253.5,373.5C 255.167,373.5 256.833,373.5 258.5,373.5C 258.5,364.5 258.5,355.5 258.5,346.5C 256.833,346.5 255.167,346.5 253.5,346.5C 253.5,344.167 253.5,341.833 253.5,339.5C 255.167,339.5 256.833,339.5 258.5,339.5C 258.5,336.167 258.5,332.833 258.5,329.5C 262.167,329.5 265.833,329.5 269.5,329.5C 269.5,332.833 269.5,336.167 269.5,339.5C 271.167,339.5 272.833,339.5 274.5,339.5C 274.5,341.833 274.5,344.167 274.5,346.5 Z"/></g>
<g><path style="opacity:1" fill="#131a3a" d="M 259.5,330.5 C 262.5,330.5 265.5,330.5 268.5,330.5C 268.5,333.833 268.5,337.167 268.5,340.5C 270.167,340.5 271.833,340.5 273.5,340.5C 273.5,342.167 273.5,343.833 273.5,345.5C 271.833,345.5 270.167,345.5 268.5,345.5C 268.5,355.167 268.5,364.833 268.5,374.5C 270.167,374.5 271.833,374.5 273.5,374.5C 273.5,376.167 273.5,377.833 273.5,379.5C 267.167,379.5 260.833,379.5 254.5,379.5C 254.5,377.833 254.5,376.167 254.5,374.5C 256.167,374.5 257.833,374.5 259.5,374.5C 259.5,364.833 259.5,355.167 259.5,345.5C 257.833,345.5 256.167,345.5 254.5,345.5C 254.5,343.833 254.5,342.167 254.5,340.5C 256.167,340.5 257.833,340.5 259.5,340.5C 259.5,337.167 259.5,333.833 259.5,330.5 Z"/></g>
<g><path style="opacity:1" fill="#4a5164" d="M 172.5,343.5 C 172.5,345.5 172.5,347.5 172.5,349.5C 168.5,349.5 164.5,349.5 160.5,349.5C 160.5,350.833 160.5,352.167 160.5,353.5C 165.5,353.5 170.5,353.5 175.5,353.5C 175.5,355.833 175.5,358.167 175.5,360.5C 170.5,360.5 165.5,360.5 160.5,360.5C 160.5,367.167 160.5,373.833 160.5,380.5C 155.833,380.5 151.167,380.5 146.5,380.5C 146.5,378.167 146.5,375.833 146.5,373.5C 147.5,373.5 148.5,373.5 149.5,373.5C 149.5,369.167 149.5,364.833 149.5,360.5C 144.063,360.834 139.396,360.501 135.5,359.5C 140.5,359.5 145.5,359.5 150.5,359.5C 150.5,364.5 150.5,369.5 150.5,374.5C 149.5,374.5 148.5,374.5 147.5,374.5C 147.5,376.167 147.5,377.833 147.5,379.5C 151.5,379.5 155.5,379.5 159.5,379.5C 159.5,372.833 159.5,366.167 159.5,359.5C 164.5,359.5 169.5,359.5 174.5,359.5C 174.5,357.833 174.5,356.167 174.5,354.5C 169.5,354.5 164.5,354.5 159.5,354.5C 159.5,352.5 159.5,350.5 159.5,348.5C 163.5,348.5 167.5,348.5 171.5,348.5C 171.216,346.585 171.549,344.919 172.5,343.5 Z"/></g>
<g><path style="opacity:1" fill="#111939" d="M 371.5,330.5 C 371.5,332.833 371.5,335.167 371.5,337.5C 375.5,337.5 379.5,337.5 383.5,337.5C 383.5,339.167 383.5,340.833 383.5,342.5C 379.5,342.5 375.5,342.5 371.5,342.5C 371.5,346.167 371.5,349.833 371.5,353.5C 375.833,353.5 380.167,353.5 384.5,353.5C 384.5,355.167 384.5,356.833 384.5,358.5C 380.818,358.335 377.152,358.501 373.5,359C 374.163,360.518 375.163,361.685 376.5,362.5C 379.384,368.064 382.718,373.398 386.5,378.5C 383.554,379.655 380.554,379.821 377.5,379C 374.359,374.359 371.026,369.859 367.5,365.5C 364.624,370.086 361.624,374.586 358.5,379C 355.167,379.667 351.833,379.667 348.5,379C 353.082,372.504 357.416,365.837 361.5,359C 357.514,358.501 353.514,358.334 349.5,358.5C 349.5,356.833 349.5,355.167 349.5,353.5C 354.167,353.5 358.833,353.5 363.5,353.5C 363.5,349.833 363.5,346.167 363.5,342.5C 361.167,342.5 358.833,342.5 356.5,342.5C 356.5,343.833 356.5,345.167 356.5,346.5C 353.833,346.5 351.167,346.5 348.5,346.5C 349.115,341.474 349.949,336.474 351,331.5C 353.381,330.565 355.881,330.232 358.5,330.5C 358.682,332.591 358.348,334.591 357.5,336.5C 359.396,337.466 361.396,337.799 363.5,337.5C 363.5,335.167 363.5,332.833 363.5,330.5C 366.167,330.5 368.833,330.5 371.5,330.5 Z"/></g>
<g><path style="opacity:1" fill="#111839" d="M 128.5,355.5 C 128.5,363.5 128.5,371.5 128.5,379.5C 125.833,379.5 123.167,379.5 120.5,379.5C 120.825,371.648 120.492,363.982 119.5,356.5C 118.737,355.732 117.737,355.232 116.5,355C 118.302,351.7 120.302,348.533 122.5,345.5C 125.446,344.345 128.446,344.179 131.5,345C 128.572,348.029 126.572,351.529 125.5,355.5C 126.5,355.5 127.5,355.5 128.5,355.5 Z"/></g>
<g><path style="opacity:1" fill="#565c6d" d="M 119.5,356.5 C 120.492,363.982 120.825,371.648 120.5,379.5C 123.167,379.5 125.833,379.5 128.5,379.5C 128.5,371.5 128.5,363.5 128.5,355.5C 129.499,363.08 129.832,371.413 129.5,380.5C 126.167,380.5 122.833,380.5 119.5,380.5C 119.5,372.5 119.5,364.5 119.5,356.5 Z"/></g>
<g><path style="opacity:1" fill="#111838" d="M 337.5,357.5 C 339.607,358.468 341.941,358.802 344.5,358.5C 344.5,359.833 344.5,361.167 344.5,362.5C 342.167,362.5 339.833,362.5 337.5,362.5C 337.5,366.5 337.5,370.5 337.5,374.5C 339.5,374.5 341.5,374.5 343.5,374.5C 343.5,376.167 343.5,377.833 343.5,379.5C 338.833,379.5 334.167,379.5 329.5,379.5C 329.666,374.156 329.499,368.823 329,363.5C 327.301,362.594 325.467,362.261 323.5,362.5C 323.5,361.167 323.5,359.833 323.5,358.5C 325.467,358.739 327.301,358.406 329,357.5C 329.498,354.518 329.665,351.518 329.5,348.5C 327.5,348.5 325.5,348.5 323.5,348.5C 323.5,346.833 323.5,345.167 323.5,343.5C 330.5,343.5 337.5,343.5 344.5,343.5C 344.5,345.167 344.5,346.833 344.5,348.5C 342.167,348.5 339.833,348.5 337.5,348.5C 337.5,351.5 337.5,354.5 337.5,357.5 Z"/></g>
<g><path style="opacity:1" fill="#121939" d="M 163.5,365.5 C 166.119,365.232 168.619,365.565 171,366.5C 172.684,370.716 173.851,375.049 174.5,379.5C 171.833,379.5 169.167,379.5 166.5,379.5C 165.503,374.839 164.503,370.173 163.5,365.5 Z"/></g>
<g><path style="opacity:1" fill="#121839" d="M 138.5,366.5 C 140.674,366.92 142.674,366.92 144.5,366.5C 145.242,370.813 144.575,374.979 142.5,379C 139.833,379.667 137.167,379.667 134.5,379C 135.931,374.874 137.264,370.707 138.5,366.5 Z"/></g>
<g><path style="opacity:1" fill="#111939" d="M 194.5,330.5 C 196.833,330.5 199.167,330.5 201.5,330.5C 201.667,343.837 201.5,357.171 201,370.5C 199.931,373.208 198.764,375.875 197.5,378.5C 195.235,379.647 192.902,379.814 190.5,379C 191.796,376.239 192.963,373.405 194,370.5C 194.5,357.171 194.667,343.837 194.5,330.5 Z"/></g>
<g><path style="opacity:1" fill="#12193a" d="M 314.5,374.5 C 314.5,376.167 314.5,377.833 314.5,379.5C 302.5,379.5 290.5,379.5 278.5,379.5C 278.5,369.5 278.5,359.5 278.5,349.5C 277.209,349.263 276.209,349.596 275.5,350.5C 274.566,349.432 274.232,348.099 274.5,346.5C 275.708,345.766 277.041,345.433 278.5,345.5C 278.5,340.5 278.5,335.5 278.5,330.5C 281.167,330.5 283.833,330.5 286.5,330.5C 286.5,334.5 286.5,338.5 286.5,342.5C 288.262,342.643 289.929,342.309 291.5,341.5C 292.489,337.893 292.823,334.226 292.5,330.5C 294.833,330.5 297.167,330.5 299.5,330.5C 299.183,333.572 299.516,336.572 300.5,339.5C 304.787,338.012 309.12,336.678 313.5,335.5C 314.499,346.48 314.832,357.48 314.5,368.5C 311.102,368.82 307.768,368.487 304.5,367.5C 306.424,359.704 307.091,351.704 306.5,343.5C 304.409,343.318 302.409,343.652 300.5,344.5C 299.502,352.472 299.169,360.472 299.5,368.5C 297.167,368.5 294.833,368.5 292.5,368.5C 292.5,361.167 292.5,353.833 292.5,346.5C 290.738,346.357 289.071,346.691 287.5,347.5C 286.502,356.475 286.168,365.475 286.5,374.5C 295.833,374.5 305.167,374.5 314.5,374.5 Z"/></g>
<g><path style="opacity:1" fill="#575e6f" d="M 275.5,350.5 C 276.209,349.596 277.209,349.263 278.5,349.5C 278.5,359.5 278.5,369.5 278.5,379.5C 290.5,379.5 302.5,379.5 314.5,379.5C 314.5,377.833 314.5,376.167 314.5,374.5C 315.461,376.265 315.795,378.265 315.5,380.5C 302.833,380.5 290.167,380.5 277.5,380.5C 278.141,370.111 277.474,360.111 275.5,350.5 Z"/></g>
<g><path style="opacity:1" fill="#545a6c" d="M 192.5,397.5 C 191.523,394.713 191.19,391.713 191.5,388.5C 190.167,388.5 188.833,388.5 187.5,388.5C 187.5,396.167 187.5,403.833 187.5,411.5C 188.833,411.5 190.167,411.5 191.5,411.5C 191.5,408.167 191.5,404.833 191.5,401.5C 195.167,401.5 198.833,401.5 202.5,401.5C 202.5,404.833 202.5,408.167 202.5,411.5C 203.833,411.5 205.167,411.5 206.5,411.5C 206.5,403.833 206.5,396.167 206.5,388.5C 205.167,388.5 203.833,388.5 202.5,388.5C 202.81,391.713 202.477,394.713 201.5,397.5C 201.5,394.167 201.5,390.833 201.5,387.5C 203.5,387.5 205.5,387.5 207.5,387.5C 207.5,395.833 207.5,404.167 207.5,412.5C 205.5,412.5 203.5,412.5 201.5,412.5C 201.5,409.167 201.5,405.833 201.5,402.5C 198.5,402.5 195.5,402.5 192.5,402.5C 192.5,405.833 192.5,409.167 192.5,412.5C 190.5,412.5 188.5,412.5 186.5,412.5C 186.5,404.167 186.5,395.833 186.5,387.5C 188.5,387.5 190.5,387.5 192.5,387.5C 192.5,390.833 192.5,394.167 192.5,397.5 Z"/></g>
<g><path style="opacity:1" fill="#121939" d="M 343.5,388.5 C 348.267,388.191 352.934,388.691 357.5,390C 360.568,394.724 359.568,398.391 354.5,401C 356.869,403.57 358.869,406.404 360.5,409.5C 359.277,410.614 357.944,410.781 356.5,410C 354.833,407.667 353.167,405.333 351.5,403C 350.207,402.51 348.873,402.343 347.5,402.5C 347.5,405.5 347.5,408.5 347.5,411.5C 346.167,411.5 344.833,411.5 343.5,411.5C 343.5,403.833 343.5,396.167 343.5,388.5 Z"/></g>
<g><path style="opacity:1" fill="#363e52" d="M 347.5,391.5 C 354.536,390.603 356.203,393.103 352.5,399C 350.888,399.72 349.388,399.554 348,398.5C 347.503,396.19 347.337,393.857 347.5,391.5 Z"/></g>
<g><path style="opacity:1" fill="#121939" d="M 239.5,388.5 C 240.833,388.5 242.167,388.5 243.5,388.5C 243.334,394.176 243.501,399.843 244,405.5C 247.992,409.681 250.992,409.014 253,403.5C 253.499,398.511 253.666,393.511 253.5,388.5C 254.833,388.5 256.167,388.5 257.5,388.5C 257.87,394.925 257.37,401.258 256,407.5C 250.667,412.833 245.333,412.833 240,407.5C 239.5,401.175 239.334,394.842 239.5,388.5 Z"/></g>
<g><path style="opacity:1" fill="#101837" d="M 192.5,397.5 C 195.5,398.833 198.5,398.833 201.5,397.5C 202.477,394.713 202.81,391.713 202.5,388.5C 203.833,388.5 205.167,388.5 206.5,388.5C 206.5,396.167 206.5,403.833 206.5,411.5C 205.167,411.5 203.833,411.5 202.5,411.5C 202.5,408.167 202.5,404.833 202.5,401.5C 198.833,401.5 195.167,401.5 191.5,401.5C 191.5,404.833 191.5,408.167 191.5,411.5C 190.167,411.5 188.833,411.5 187.5,411.5C 187.5,403.833 187.5,396.167 187.5,388.5C 188.833,388.5 190.167,388.5 191.5,388.5C 191.19,391.713 191.523,394.713 192.5,397.5 Z"/></g>
<g><path style="opacity:1" fill="#121938" d="M 305.5,388.5 C 309.833,388.5 314.167,388.5 318.5,388.5C 318.5,389.5 318.5,390.5 318.5,391.5C 315.813,391.336 313.146,391.503 310.5,392C 309.167,394 309.167,396 310.5,398C 312.81,398.497 315.143,398.663 317.5,398.5C 317.5,399.5 317.5,400.5 317.5,401.5C 314.833,401.5 312.167,401.5 309.5,401.5C 309.5,403.5 309.5,405.5 309.5,407.5C 312.5,407.5 315.5,407.5 318.5,407.5C 318.5,408.833 318.5,410.167 318.5,411.5C 314.167,411.5 309.833,411.5 305.5,411.5C 305.5,403.833 305.5,396.167 305.5,388.5 Z"/></g>
<g><path style="opacity:1" fill="#101838" d="M 321.5,388.5 C 327.5,388.5 333.5,388.5 339.5,388.5C 339.5,389.5 339.5,390.5 339.5,391.5C 337.167,391.5 334.833,391.5 332.5,391.5C 332.5,398.167 332.5,404.833 332.5,411.5C 331.167,411.5 329.833,411.5 328.5,411.5C 328.666,405.158 328.5,398.825 328,392.5C 325.959,391.577 323.792,391.244 321.5,391.5C 321.5,390.5 321.5,389.5 321.5,388.5 Z"/></g>
<g><path style="opacity:1" fill="#121838" d="M 119.5,388.5 C 120.978,388.238 122.311,388.571 123.5,389.5C 124.934,392.047 126.6,394.381 128.5,396.5C 130.412,394.343 132.079,392.009 133.5,389.5C 134.833,388.167 136.167,388.167 137.5,389.5C 135.043,392.914 132.709,396.414 130.5,400C 132.709,403.586 135.043,407.086 137.5,410.5C 136.167,411.833 134.833,411.833 133.5,410.5C 132.079,407.991 130.412,405.657 128.5,403.5C 126.34,405.831 124.34,408.331 122.5,411C 121.365,411.749 120.365,411.583 119.5,410.5C 121.957,407.086 124.291,403.586 126.5,400C 123.914,396.264 121.581,392.43 119.5,388.5 Z"/></g>
<g><path style="opacity:1" fill="#121939" d="M 165.5,388.5 C 171.167,388.5 176.833,388.5 182.5,388.5C 179.724,394.965 176.057,400.965 171.5,406.5C 175.107,407.489 178.774,407.823 182.5,407.5C 182.5,408.5 182.5,409.5 182.5,410.5C 176.833,410.5 171.167,410.5 165.5,410.5C 165.351,409.448 165.517,408.448 166,407.5C 169.695,402.638 173.195,397.638 176.5,392.5C 172.893,391.511 169.226,391.177 165.5,391.5C 165.5,390.5 165.5,389.5 165.5,388.5 Z"/></g>
<g><path style="opacity:1" fill="#131938" d="M 273.5,388.5 C 275.833,388.5 278.167,388.5 280.5,388.5C 281.827,394.314 283.66,399.981 286,405.5C 288.264,400.207 290.431,394.873 292.5,389.5C 294.396,388.534 296.396,388.201 298.5,388.5C 298.5,396.167 298.5,403.833 298.5,411.5C 297.167,411.5 295.833,411.5 294.5,411.5C 294.666,405.491 294.499,399.491 294,393.5C 291.803,399.091 289.803,404.758 288,410.5C 286.667,411.833 285.333,411.833 284,410.5C 282,405.167 280,399.833 278,394.5C 277.667,399.833 277.333,405.167 277,410.5C 275.989,411.337 274.822,411.67 273.5,411.5C 273.5,403.833 273.5,396.167 273.5,388.5 Z"/></g>
<g><path style="opacity:1" fill="#101838" d="M 142.5,388.5 C 143.833,388.5 145.167,388.5 146.5,388.5C 146.334,394.176 146.501,399.843 147,405.5C 150.49,409.588 153.49,409.255 156,404.5C 156.499,399.177 156.666,393.844 156.5,388.5C 157.833,388.5 159.167,388.5 160.5,388.5C 160.666,394.176 160.499,399.843 160,405.5C 156.654,411.465 151.82,412.965 145.5,410C 144.299,409.097 143.465,407.931 143,406.5C 142.501,400.509 142.334,394.509 142.5,388.5 Z"/></g>
<g><path style="opacity:1" fill="#121838" d="M 371.5,388.5 C 385.068,388.576 389.235,394.909 384,407.5C 379.345,411.855 374.179,412.522 368.5,409.5C 362.434,401.409 363.434,394.409 371.5,388.5 Z"/></g>
<g><path style="opacity:1" fill="#30394e" d="M 373.5,391.5 C 376.961,391.146 379.461,392.479 381,395.5C 383.504,404.316 380.337,408.149 371.5,407C 367.193,401.063 367.86,395.896 373.5,391.5 Z"/></g>
<g><path style="opacity:1" fill="#121839" d="M 218.5,388.5 C 232.977,388.429 237.144,395.096 231,408.5C 223.977,413.165 217.977,412.165 213,405.5C 212.333,401.833 212.333,398.167 213,394.5C 214.36,391.977 216.193,389.977 218.5,388.5 Z"/></g>
<g><path style="opacity:1" fill="#313a4e" d="M 221.5,391.5 C 229.267,393.372 231.434,398.039 228,405.5C 221.505,409.84 217.672,408.006 216.5,400C 216.525,396.105 218.192,393.272 221.5,391.5 Z"/></g>
</svg>
